<mxfile host="app.diagrams.net" modified="2023-06-07T10:49:54.945Z" agent="Mozilla/5.0 (Macintosh; Intel Mac OS X 10_15_7) AppleWebKit/605.1.15 (KHTML, like Gecko) Version/16.4 Safari/605.1.15" etag="g_KbtKXJA1hBDXXzXLma" version="21.3.7" type="device">
  <diagram name="Seite-1" id="n-zzxeImCiMwwyzZX6F9">
    <mxGraphModel dx="1026" dy="614" grid="1" gridSize="10" guides="1" tooltips="1" connect="1" arrows="1" fold="1" page="1" pageScale="1" pageWidth="827" pageHeight="1169" math="0" shadow="0">
      <root>
        <mxCell id="0" />
        <mxCell id="1" parent="0" />
        <mxCell id="4hPN_xKUDlY_Exep0QY8-4" value="logger" style="rounded=1;whiteSpace=wrap;html=1;fillColor=#d5e8d4;strokeColor=#82b366;" parent="1" vertex="1">
          <mxGeometry x="40" y="40" width="290" height="40" as="geometry" />
        </mxCell>
        <mxCell id="4hPN_xKUDlY_Exep0QY8-7" value="" style="endArrow=open;html=1;rounded=0;endFill=0;exitX=0.5;exitY=1;exitDx=0;exitDy=0;entryX=0.58;entryY=-0.071;entryDx=0;entryDy=0;entryPerimeter=0;" parent="1" source="4hPN_xKUDlY_Exep0QY8-4" target="4hPN_xKUDlY_Exep0QY8-25" edge="1">
          <mxGeometry width="50" height="50" relative="1" as="geometry">
            <mxPoint x="210" y="110" as="sourcePoint" />
            <mxPoint x="181" y="130" as="targetPoint" />
            <Array as="points" />
          </mxGeometry>
        </mxCell>
        <mxCell id="4hPN_xKUDlY_Exep0QY8-24" value="" style="rounded=1;whiteSpace=wrap;html=1;fillColor=#fff2cc;strokeColor=#d6b656;movable=1;resizable=1;rotatable=1;deletable=1;editable=1;locked=0;connectable=1;" parent="1" vertex="1">
          <mxGeometry x="80" y="143" width="210" height="100" as="geometry" />
        </mxCell>
        <mxCell id="4hPN_xKUDlY_Exep0QY8-25" value="ThreadContext" style="text;html=1;strokeColor=none;fillColor=none;align=center;verticalAlign=middle;whiteSpace=wrap;rounded=0;" parent="1" vertex="1">
          <mxGeometry x="150" y="143" width="60" height="30" as="geometry" />
        </mxCell>
        <mxCell id="4hPN_xKUDlY_Exep0QY8-26" value="&lt;span style=&quot;font-size: 8px;&quot;&gt;&lt;b&gt;someKey&lt;/b&gt;&lt;/span&gt;&lt;span style=&quot;white-space: pre; font-size: 8px;&quot;&gt;&#x9;&lt;span style=&quot;white-space: pre; font-size: 8px;&quot;&gt;&#x9;&lt;span style=&quot;white-space: pre;&quot;&gt;&#x9;&lt;/span&gt;&lt;span style=&quot;white-space: pre; font-size: 8px;&quot;&gt;someValue&lt;br style=&quot;font-size: 8px;&quot;&gt;&lt;span style=&quot;font-size: 8px;&quot;&gt;&lt;b&gt;thread&lt;/b&gt;&lt;/span&gt;&lt;span style=&quot;white-space: pre; font-size: 8px;&quot;&gt;&#x9;&lt;span style=&quot;white-space: pre; font-size: 8px;&quot;&gt;&#x9;&lt;span style=&quot;white-space: pre; font-size: 8px;&quot;&gt;&#x9;&lt;span style=&quot;white-space: pre;&quot;&gt;&#x9;&lt;/span&gt;node-14-thread-12&lt;br style=&quot;font-size: 8px;&quot;&gt;&lt;/span&gt;&lt;/span&gt;&lt;/span&gt;&lt;span style=&quot;font-size: 8px;&quot;&gt;&lt;b&gt;currentSpanId&lt;/b&gt;&lt;/span&gt;&lt;span style=&quot;white-space: pre; font-size: 8px;&quot;&gt;&#x9;&lt;span style=&quot;white-space: pre; font-size: 8px;&quot;&gt;&#x9;0x2d8e&lt;br style=&quot;font-size: 8px;&quot;&gt;&lt;/span&gt;&lt;/span&gt;&lt;span style=&quot;font-size: 8px;&quot;&gt;&lt;b&gt;currentSpanType&lt;/b&gt;&lt;/span&gt;&lt;span style=&quot;white-space: pre; font-size: 8px;&quot;&gt;&#x9;&lt;span style=&quot;white-space: pre; font-size: 8px;&quot;&gt;&#x9;transaction handling&lt;br style=&quot;font-size: 8px;&quot;&gt;&lt;/span&gt;&lt;/span&gt;&lt;span style=&quot;font-size: 8px;&quot;&gt;&lt;b&gt;transactionId&lt;/b&gt;&lt;/span&gt;&lt;span style=&quot;white-space: pre; font-size: 8px;&quot;&gt;&#x9;&lt;span style=&quot;white-space: pre; font-size: 8px;&quot;&gt;&#x9;&lt;span style=&quot;white-space: pre;&quot;&gt;&#x9;&lt;/span&gt;0xd74e7a48b2&lt;/span&gt;&lt;/span&gt;&lt;br style=&quot;font-size: 8px;&quot;&gt;&lt;/span&gt;&lt;/span&gt;&lt;/span&gt;" style="text;html=1;strokeColor=none;fillColor=none;align=left;verticalAlign=top;whiteSpace=wrap;rounded=0;fontSize=8;" parent="1" vertex="1">
          <mxGeometry x="91" y="168" width="189" height="75" as="geometry" />
        </mxCell>
        <mxCell id="4hPN_xKUDlY_Exep0QY8-27" value="" style="endArrow=none;html=1;rounded=0;" parent="1" edge="1">
          <mxGeometry width="50" height="50" relative="1" as="geometry">
            <mxPoint x="90" y="168" as="sourcePoint" />
            <mxPoint x="280" y="168" as="targetPoint" />
          </mxGeometry>
        </mxCell>
        <mxCell id="4hPN_xKUDlY_Exep0QY8-30" value="Whenever a log message is handled all metadata from the ThreadContext is added as metadata to the log message" style="text;html=1;strokeColor=none;fillColor=none;align=left;verticalAlign=top;whiteSpace=wrap;rounded=0;fontSize=8;fontColor=#999999;" parent="1" vertex="1">
          <mxGeometry x="186" y="85" width="124" height="30" as="geometry" />
        </mxCell>
      </root>
    </mxGraphModel>
  </diagram>
</mxfile>
